# xmcd
#
# Track frame offsets: 
#        150
#        18212
#        37796
#        58678
#        75290
#        94437
#        114780
#        134029
#        148594
#        176702
#        202950
#        221161
#
# Disc length: 3470 seconds
#
# Revision: 0
# Processed by: cddbd v1.5.2PL0 Copyright (c) Steve Scherf et al.
# Submitted via: ExactAudioCopy v1.0b4
#
DISCID=a10d8c0c
DTITLE=Jeff Chaz - Sounds Like The Blues To Me
DYEAR=2016
DGENRE=Blues
TTITLE0=Sounds Like The Blues To Me
TTITLE1=Make Love To You In The Sand
TTITLE2=Hitchkiking In The Rain
TTITLE3=I Am The Blues
TTITLE4=You Look So Good To Me
TTITLE5=Mysterious, Exotic Lady
TTITLE6=I'm Goin' After Moby Dick In A Rowboat
TTITLE7=Four In The Morning
TTITLE8=Will You Be Mine
TTITLE9=Walkin' With My Baby
TTITLE10=The Mt Vernon Blues
TTITLE11=You're Bound To Get Us Both Hung
EXTD=
EXTT0=
EXTT1=
EXTT2=
EXTT3=
EXTT4=
EXTT5=
EXTT6=
EXTT7=
EXTT8=
EXTT9=
EXTT10=
EXTT11=
PLAYORDER=
